<svg version="1.1" id="Layer_1" xmlns="http://www.w3.org/2000/svg" xmlns:xlink="http://www.w3.org/1999/xlink" x="0px" y="0px"
	 width="100%" viewBox="0 0 824 96" enable-background="new 0 0 824 96" xml:space="preserve">
<path fill="#070707" opacity="1.000000" stroke="none" 
	d="
M820.000000,97.000000 
	C548.637329,97.000000 277.274597,97.000000 5.447111,96.547073 
	C4.979864,95.261116 5.075602,94.414009 4.958568,93.597404 
	C4.330991,89.218460 6.129929,87.357613 10.549593,87.978592 
	C11.693370,88.139290 12.878937,88.002441 14.045308,88.002441 
	C279.644592,88.002426 545.243896,87.999138 810.843201,88.014809 
	C821.167358,88.015419 819.887024,86.886475 820.000000,97.000000 
z"/>
<path fill="#1F1F1F" opacity="1.000000" stroke="none" 
	d="
M820.500000,97.000000 
	C819.887024,86.886475 821.167358,88.015419 810.843201,88.014809 
	C545.243896,87.999138 279.644592,88.002426 14.045308,88.002441 
	C12.878937,88.002441 11.693370,88.139290 10.549593,87.978592 
	C6.129929,87.357613 4.330991,89.218460 4.958568,93.597404 
	C5.075602,94.414009 4.979864,95.261116 4.991160,96.547073 
	C3.673171,97.000000 2.346341,97.000000 1.000000,97.000000 
	C1.000000,66.157722 0.980326,35.315380 1.073260,4.473380 
	C1.076907,3.262980 -0.530984,0.508318 3.490778,1.259062 
	C3.981765,1.690940 3.981973,1.863757 3.984609,2.493973 
	C4.028303,6.049600 4.069569,9.147827 4.089382,12.581322 
	C4.371623,13.442935 4.675316,13.969281 4.872489,14.858694 
	C4.524909,18.167036 4.283849,21.112312 4.035241,24.377203 
	C4.035412,25.124369 4.043133,25.551918 4.030960,26.418274 
	C4.009922,28.905203 4.008778,30.953323 4.002462,33.439049 
	C4.010187,35.920910 4.023084,37.965164 4.022985,40.452194 
	C4.018021,43.260471 4.026052,45.625965 4.019198,48.392132 
	C4.006880,49.861122 4.009446,50.929447 4.003466,52.400131 
	C4.013563,53.875149 4.032207,54.947803 4.041399,56.339928 
	C4.040682,57.084652 4.049418,57.509903 4.041600,58.200417 
	C4.020720,58.642815 4.016395,58.819946 4.007215,59.398743 
	C4.012158,60.870781 4.021955,61.941158 4.021667,63.453903 
	C4.012260,66.256134 4.012939,68.615990 4.008894,71.372879 
	C4.024990,72.563576 4.045808,73.357239 4.068629,74.434776 
	C4.066549,75.097122 4.062467,75.475586 4.042950,76.211723 
	C4.018559,77.046623 4.009604,77.523857 4.002987,78.330070 
	C4.334151,79.771736 4.662975,80.884415 5.460970,81.997833 
	C274.508148,81.999046 543.086121,81.999519 811.664124,81.999969 
	C812.497192,81.999969 813.340210,81.915604 814.161621,82.013268 
	C818.882385,82.574615 820.585022,80.334671 819.953491,75.581467 
	C819.952820,74.906693 819.947571,74.521118 819.959229,73.696793 
	C819.982117,71.504669 819.988037,69.751282 819.996094,67.581345 
	C819.995789,65.775726 819.993408,64.386658 819.994385,62.597382 
	C819.993835,61.130341 819.989807,60.063522 819.991089,58.596558 
	C819.988525,57.129711 819.980713,56.063004 819.982056,54.621132 
	C819.981750,53.495171 819.972351,52.744381 819.974976,51.576401 
	C819.969177,49.767982 819.951233,48.376759 819.951538,46.571327 
	C819.957825,44.774704 819.945984,43.392288 819.957947,41.561069 
	C819.979492,38.409630 819.977173,35.706993 819.985107,32.566528 
	C819.991577,30.087721 819.987915,28.046745 819.989990,25.545137 
	C819.999817,21.396627 820.003784,17.708750 820.024536,13.724546 
	C819.990051,13.036057 819.938843,12.643892 819.913635,11.801422 
	C819.634766,8.255972 819.329956,5.160827 819.229736,1.929631 
	C819.689514,1.576606 819.878113,1.312079 820.000000,1.000000 
	C821.658752,1.000000 823.317566,1.000000 824.982239,0.999999 
	C824.988159,33.000000 824.988159,65.000000 824.984558,97.000000 
	C823.653931,97.000000 822.326965,97.000000 820.500000,97.000000 
z"/>
<path fill="#3E3E3E" opacity="1.000000" stroke="none" 
	d="
M3.982180,2.036574 
	C3.981973,1.863757 3.981765,1.690940 3.990778,1.259062 
	C237.028030,1.000000 470.056061,1.000000 703.536133,1.241074 
	C703.988159,1.482148 703.960693,1.963659 703.496094,1.973501 
	C584.273010,1.989113 465.514557,1.991949 346.756104,2.001496 
	C233.161163,2.010627 119.566223,2.026737 5.748356,2.047571 
	C5.525424,2.055362 5.083717,2.118059 4.808066,2.101286 
	C4.349005,2.068533 4.165593,2.052554 3.982180,2.036574 
z"/>
<path fill="#3E3E3E" opacity="1.000000" stroke="none" 
	d="
M819.531372,1.000000 
	C819.878113,1.312079 819.689514,1.576606 818.758545,1.907364 
	C785.062988,2.007098 752.043030,1.993049 719.011047,1.734398 
	C718.999023,1.489795 719.000000,1.000000 719.000000,1.000000 
	C752.354248,1.000000 785.708435,1.000000 819.531372,1.000000 
z"/>
<path fill="#1F1F1F" opacity="1.000000" stroke="none" 
	d="
M718.533875,1.000000 
	C719.000000,1.000000 718.999023,1.489795 718.681091,1.987128 
	C713.562317,2.310860 708.761536,2.137259 703.960693,1.963659 
	C703.960693,1.963659 703.988159,1.482148 703.994080,1.241074 
	C708.689270,1.000000 713.378479,1.000000 718.533875,1.000000 
z"/>
<path fill="#303030" opacity="1.000000" stroke="none" 
	d="
M4.042789,24.057587 
	C4.283849,21.112312 4.524909,18.167036 5.326990,14.764768 
	C7.886983,14.297449 9.885955,14.278089 11.884927,14.278078 
	C279.101654,14.276736 546.318359,14.277411 813.535095,14.266231 
	C815.692627,14.266140 817.850220,14.106183 820.007751,14.020870 
	C820.003784,17.708750 819.999817,21.396627 819.534485,25.542858 
	C547.713928,26.000679 276.354706,26.000149 4.956697,25.720478 
	C4.626204,24.980089 4.334496,24.518837 4.042789,24.057587 
z"/>
<path fill="#262626" opacity="1.000000" stroke="none" 
	d="
M703.496094,1.973501 
	C708.761536,2.137259 713.562317,2.310860 718.693115,2.231730 
	C752.043030,1.993049 785.062988,2.007098 818.554077,2.043414 
	C819.329956,5.160827 819.634766,8.255972 819.463379,11.758720 
	C818.154236,12.152574 817.321289,12.126777 816.488281,12.126771 
	C547.194092,12.125069 277.899841,12.124945 8.605633,12.130162 
	C7.107366,12.130192 5.609100,12.205761 4.110834,12.246055 
	C4.069569,9.147827 4.028303,6.049600 3.984609,2.493973 
	C4.165593,2.052554 4.349005,2.068533 4.905049,2.201615 
	C5.277681,2.318717 5.673608,2.331960 5.673608,2.331960 
	C5.673608,2.331960 5.971288,2.039779 5.971288,2.039779 
	C119.566223,2.026737 233.161163,2.010627 346.756104,2.001496 
	C465.514557,1.991949 584.273010,1.989113 703.496094,1.973501 
z"/>
<path fill="#383838" opacity="1.000000" stroke="none" 
	d="
M819.974915,33.004356 
	C819.977173,35.706993 819.979492,38.409630 819.555298,41.481831 
	C817.039490,41.568184 814.913757,40.896511 812.868958,41.088448 
	C809.385010,41.415489 805.147705,39.216442 802.243530,43.670540 
	C794.639893,43.668068 787.484497,43.662243 780.114990,43.275810 
	C775.513733,39.819843 761.608154,40.232349 756.732910,43.602127 
	C749.317139,43.630375 742.310242,43.626842 735.156372,43.208755 
	C730.895020,39.824146 717.338074,40.310139 711.670898,43.629475 
	C704.264038,43.619186 697.262756,43.595730 690.017822,43.229263 
	C681.887695,39.559032 674.088257,40.124035 665.937500,43.508934 
	C658.912170,43.545246 652.298889,43.482231 645.306274,43.204357 
	C636.997986,39.826305 629.122803,39.613468 620.909668,43.515705 
	C613.890808,43.546120 607.283020,43.480186 600.296875,43.198982 
	C592.935059,39.459366 585.688782,40.877403 578.488098,41.938499 
	C577.842834,42.033596 577.327332,43.009892 576.300171,43.607887 
	C568.889709,43.624004 561.930542,43.609173 554.572266,43.371704 
	C547.559387,39.093250 540.381653,41.436577 533.427002,41.436207 
	C532.859497,41.436180 532.291931,42.856365 531.274292,43.634804 
	C523.583008,43.771526 516.341919,43.890079 508.813293,43.769272 
	C507.345306,42.711849 506.199280,41.253651 504.978271,41.187916 
	C500.018463,40.920925 495.026581,40.921577 490.067932,41.201683 
	C488.897369,41.267807 487.809845,42.804718 486.236389,43.669281 
	C478.638885,43.672619 471.489166,43.671722 464.124878,43.289272 
	C456.209167,39.695328 448.599762,39.672169 440.696411,43.598213 
	C433.292725,43.627327 426.295502,43.621834 419.151825,43.202194 
	C414.893311,39.828560 401.335175,40.312862 395.683594,43.623100 
	C388.271454,43.616608 381.265625,43.593594 374.016235,43.227699 
	C365.894928,39.575340 358.103058,40.083950 349.961212,43.509499 
	C342.925629,43.543930 336.303345,43.479534 329.301880,43.200764 
	C323.286926,42.325256 317.661652,41.369717 312.009521,41.168423 
	C310.122711,41.101227 308.167206,42.963360 305.772064,43.821693 
	C298.070221,43.778572 290.839386,43.857296 283.408508,43.645042 
	C279.624084,39.949070 264.692719,39.926830 261.202484,43.330505 
	C261.098145,43.432255 261.096222,43.638969 260.578125,43.737007 
	C252.808701,43.812737 245.507736,43.948204 237.909225,43.843700 
	C236.437225,42.766739 235.299301,41.274601 234.082001,41.206768 
	C228.953705,40.920986 223.794754,40.919716 218.664795,41.173534 
	C217.741776,41.219200 216.902420,42.956341 215.563248,43.812992 
	C207.752563,43.854694 200.403046,43.995941 192.866882,43.803158 
	C191.798203,42.741707 190.937057,41.416111 190.030777,41.384487 
	C184.390320,41.187664 178.736252,41.183094 173.096359,41.384621 
	C172.266373,41.414280 171.487610,42.877438 170.237427,43.677547 
	C162.637711,43.672817 155.485687,43.667877 148.119446,43.281906 
	C140.208588,39.702793 132.603317,39.670921 124.704315,43.595318 
	C117.295761,43.624126 110.294067,43.616226 103.146461,43.194656 
	C95.232018,39.776611 87.565552,39.637611 79.641426,43.618515 
	C72.246132,43.616898 65.254547,43.595448 58.019135,43.230850 
	C49.891876,39.913490 42.067570,39.592445 33.924042,43.509209 
	C26.897692,43.543884 20.282799,43.479424 13.313485,43.214607 
	C9.984703,42.012638 7.010342,41.011028 4.035981,40.009418 
	C4.023084,37.965164 4.010187,35.920910 4.459276,33.438202 
	C276.605804,33.001282 548.290344,33.002819 819.974915,33.004356 
z"/>
<path fill="#353535" opacity="1.000000" stroke="none" 
	d="
M819.985107,32.566528 
	C548.290344,33.002819 276.605804,33.001282 4.464447,33.000595 
	C4.008778,30.953323 4.009922,28.905203 4.266820,26.424728 
	C4.522575,25.992378 4.995482,25.999619 4.995482,25.999619 
	C276.354706,26.000149 547.713928,26.000679 819.528687,26.003490 
	C819.987915,28.046745 819.991577,30.087721 819.985107,32.566528 
z"/>
<path fill="#292929" opacity="1.000000" stroke="none" 
	d="
M819.993896,67.997902 
	C819.988037,69.751282 819.982117,71.504669 819.510132,73.632164 
	C818.377563,73.993492 817.711182,73.969513 817.044739,73.969513 
	C547.548218,73.967804 278.051697,73.967438 8.555198,73.975197 
	C7.059006,73.975235 5.562818,74.089813 4.066628,74.150902 
	C4.045808,73.357239 4.024990,72.563576 4.231647,71.138596 
	C4.639430,69.671524 4.819738,68.835762 5.455994,67.999947 
	C277.272583,67.999229 548.633240,67.998566 819.993896,67.997902 
z"/>
<path fill="#222222" opacity="1.000000" stroke="none" 
	d="
M4.000648,78.001091 
	C4.009604,77.523857 4.018559,77.046623 4.491482,76.280891 
	C5.787980,76.007385 6.620511,76.035492 7.453043,76.035492 
	C276.789215,76.037537 546.125366,76.037933 815.461548,76.030930 
	C816.957336,76.030891 818.453186,75.926392 819.948975,75.870667 
	C820.585022,80.334671 818.882385,82.574615 814.161621,82.013268 
	C813.340210,81.915604 812.497192,81.999969 811.664124,81.999969 
	C543.086121,81.999519 274.508148,81.999046 5.458507,81.638977 
	C4.658130,80.186623 4.329389,79.093857 4.000648,78.001091 
z"/>
<path fill="#383838" opacity="1.000000" stroke="none" 
	d="
M819.933350,46.985535 
	C819.951233,48.376759 819.969177,49.767982 819.514526,51.578545 
	C547.365356,51.997845 275.688660,51.997807 4.012012,51.997768 
	C4.009446,50.929447 4.006880,49.861122 4.415009,48.394497 
	C7.503828,47.333652 10.181951,46.671112 13.149048,46.332363 
	C20.572115,46.417839 27.706205,46.179520 35.234093,46.017525 
	C43.060181,49.368793 50.664871,47.731667 58.693562,46.871368 
	C66.245758,46.473434 73.346123,46.091667 80.831787,45.887970 
	C88.453873,49.501240 95.876358,47.838661 103.723404,46.856888 
	C111.311081,46.494038 118.448936,46.143795 125.964203,45.964390 
	C133.674179,48.719673 140.964096,49.416943 148.607971,45.704643 
	C156.323227,45.726776 163.583450,45.686485 171.116547,45.941288 
	C178.809067,48.925213 186.176712,48.970020 193.791565,46.047203 
	C201.305756,46.157822 208.509476,46.022877 216.084473,46.048714 
	C223.888809,48.962177 231.265778,48.941936 238.860474,46.035488 
	C246.355972,46.178501 253.569885,46.048172 261.154022,46.077442 
	C268.980652,48.842293 276.409485,48.730225 284.112732,46.327034 
	C290.317963,46.713100 296.225159,46.903343 302.124847,46.767239 
	C303.559387,46.734150 304.969147,45.627510 306.651062,45.239456 
	C314.124634,49.868095 321.487427,48.213173 329.152161,46.331772 
	C336.729889,46.313984 344.019348,45.972134 351.701965,45.814621 
	C359.482880,49.244305 366.853638,48.591125 374.669556,45.876701 
	C382.236938,45.807030 389.350311,45.763409 396.847961,45.897057 
	C404.609497,48.990566 411.959076,48.992264 419.729065,45.849228 
	C427.306854,45.815273 434.434509,45.796940 441.940918,45.950790 
	C449.659668,48.719028 456.957458,49.426407 464.609314,45.699570 
	C472.325378,45.727493 479.586853,45.690895 487.121582,45.948322 
	C494.740417,48.402813 502.057892,50.074371 509.261475,45.289040 
	C516.929871,45.681664 524.324341,45.785999 532.089722,46.051041 
	C539.895813,48.918182 547.270752,49.041828 554.993286,45.748627 
	C562.538147,45.833126 569.654480,45.864460 577.140869,46.058945 
	C585.097168,48.961262 592.643799,48.635712 600.616577,45.894562 
	C607.986023,45.878693 614.898560,45.897465 622.206604,45.995724 
	C630.151672,49.014729 637.677795,48.627815 645.642944,45.886353 
	C653.174194,45.782780 660.249939,45.708355 667.717529,45.818707 
	C675.497925,49.243103 682.867676,48.592548 690.680786,45.871742 
	C698.235352,45.799553 705.336609,45.752010 712.823608,45.883026 
	C720.594604,48.996544 727.953552,48.990356 735.734741,45.848900 
	C743.314697,45.817169 750.444702,45.801579 757.952759,45.957535 
	C765.664001,48.724129 772.955139,49.409912 780.604431,45.710049 
	C788.323792,45.733006 795.587524,45.696163 803.123535,45.951973 
	C808.908264,46.491589 814.420837,46.738560 819.933350,46.985535 
z"/>
<path fill="#2D2D2D" opacity="1.000000" stroke="none" 
	d="
M819.996094,67.581345 
	C548.633240,67.998566 277.272583,67.999229 5.454800,67.583313 
	C4.997329,65.777969 4.996998,64.389214 5.454901,63.000351 
	C277.272400,62.999363 548.631714,62.998482 819.990967,62.997597 
	C819.993408,64.386658 819.995789,65.775726 819.996094,67.581345 
z"/>
<path fill="#303030" opacity="1.000000" stroke="none" 
	d="
M819.994385,62.597382 
	C548.631714,62.998482 277.272400,62.999363 5.213684,63.002403 
	C4.514235,63.004555 4.031752,63.011532 4.031752,63.011532 
	C4.021955,61.941158 4.012158,60.870781 4.463350,59.399918 
	C276.611481,58.998516 548.298645,58.997608 819.985840,58.996700 
	C819.989807,60.063522 819.993835,61.130341 819.994385,62.597382 
z"/>
<path fill="#333333" opacity="1.000000" stroke="none" 
	d="
M819.991089,58.596558 
	C548.298645,58.997608 276.611481,58.998516 4.468205,58.998253 
	C4.016395,58.819946 4.020720,58.642815 4.243959,58.013149 
	C4.640810,57.042244 4.818748,56.523869 5.301337,55.734314 
	C7.914017,55.308800 10.222034,55.019455 12.530073,55.019272 
	C281.677673,54.997692 550.825256,54.997574 819.972839,54.996300 
	C819.980713,56.063004 819.988525,57.129711 819.991089,58.596558 
z"/>
<path fill="#353535" opacity="1.000000" stroke="none" 
	d="
M819.982056,54.621132 
	C550.825256,54.997574 281.677673,54.997692 12.530073,55.019272 
	C10.222034,55.019455 7.914017,55.308800 5.064871,55.736191 
	C4.523752,56.009247 4.050851,56.020458 4.050851,56.020458 
	C4.032207,54.947803 4.013563,53.875149 4.003466,52.400131 
	C275.688660,51.997807 547.365356,51.997845 819.502441,51.995735 
	C819.972351,52.744381 819.981750,53.495171 819.982056,54.621132 
z"/>
<path fill="#EBEBEB" opacity="1.000000" stroke="none" 
	d="
M819.953491,75.581474 
	C818.453186,75.926392 816.957336,76.030891 815.461548,76.030930 
	C546.125366,76.037933 276.789215,76.037537 7.453043,76.035492 
	C6.620511,76.035492 5.787980,76.007385 4.506917,75.923225 
	C4.062467,75.475586 4.066549,75.097122 4.068629,74.434776 
	C5.562818,74.089813 7.059006,73.975235 8.555198,73.975197 
	C278.051697,73.967438 547.548218,73.967804 817.044739,73.969513 
	C817.711182,73.969513 818.377563,73.993492 819.493164,74.070908 
	C819.947571,74.521118 819.952820,74.906693 819.953491,75.581474 
z"/>
<path fill="#DBDBDB" opacity="1.000000" stroke="none" 
	d="
M4.089382,12.581322 
	C5.609100,12.205761 7.107366,12.130192 8.605633,12.130162 
	C277.899841,12.124945 547.194092,12.125069 816.488281,12.126771 
	C817.321289,12.126777 818.154236,12.152574 819.437500,12.209026 
	C819.938843,12.643892 819.990051,13.036057 820.024536,13.724545 
	C817.850220,14.106183 815.692627,14.266140 813.535095,14.266231 
	C546.318359,14.277411 279.101654,14.276736 11.884927,14.278078 
	C9.885955,14.278089 7.886983,14.297449 5.433510,14.401701 
	C4.675316,13.969281 4.371623,13.442935 4.089382,12.581322 
z"/>
<path fill="#3E3E3E" opacity="1.000000" stroke="none" 
	d="
M819.951538,46.571327 
	C814.420837,46.738560 808.908264,46.491589 803.125977,45.698257 
	C802.801392,44.656994 802.746521,44.162094 802.691650,43.667191 
	C805.147705,39.216442 809.385010,41.415489 812.868958,41.088448 
	C814.913757,40.896511 817.039490,41.568184 819.531494,41.930634 
	C819.945984,43.392288 819.957825,44.774704 819.951538,46.571327 
z"/>
<path fill="#3E3E3E" opacity="1.000000" stroke="none" 
	d="
M12.860073,46.008572 
	C10.181951,46.671112 7.503828,47.333652 4.429893,47.993828 
	C4.026052,45.625965 4.018021,43.260471 4.022985,40.452194 
	C7.010342,41.011028 9.984703,42.012638 13.083712,43.402416 
	C13.032816,43.881653 12.857275,43.972717 12.606631,44.157585 
	C12.419248,44.480721 12.438577,44.704449 12.739891,45.173462 
	C12.880202,45.619091 12.870137,45.813831 12.860073,46.008572 
z"/>
<path fill="#353535" opacity="1.000000" stroke="none" 
	d="
M4.021667,63.453903 
	C4.031752,63.011532 4.514235,63.004555 4.755451,63.002506 
	C4.996998,64.389214 4.997329,65.777969 4.998854,67.583359 
	C4.819738,68.835762 4.639430,69.671524 4.236370,70.741562 
	C4.012939,68.615990 4.012260,66.256134 4.021667,63.453903 
z"/>
<path fill="#303030" opacity="1.000000" stroke="none" 
	d="
M4.002987,78.330070 
	C4.329389,79.093857 4.658130,80.186623 4.989335,81.638245 
	C4.662975,80.884415 4.334151,79.771736 4.002987,78.330070 
z"/>
<path fill="#3E3E3E" opacity="1.000000" stroke="none" 
	d="
M4.041399,56.339928 
	C4.050851,56.020458 4.523752,56.009247 4.760218,56.007370 
	C4.818748,56.523869 4.640810,57.042244 4.260514,57.747887 
	C4.049418,57.509903 4.040682,57.084652 4.041399,56.339928 
z"/>
<path fill="#3E3E3E" opacity="1.000000" stroke="none" 
	d="
M4.956697,25.720478 
	C4.995482,25.999619 4.522575,25.992378 4.286715,25.985924 
	C4.043133,25.551918 4.035412,25.124369 4.035240,24.377203 
	C4.334496,24.518837 4.626204,24.980089 4.956697,25.720478 
z"/>
<path fill="#1F1F1F" opacity="1.000000" stroke="none" 
	d="
M5.748356,2.047571 
	C5.971288,2.039779 5.673608,2.331960 5.673608,2.331960 
	C5.673608,2.331960 5.277681,2.318717 5.180699,2.218388 
	C5.083717,2.118059 5.525424,2.055362 5.748356,2.047571 
z"/>
<path fill="#3E3E3E" opacity="1.000000" stroke="none" 
	d="
M58.241730,46.887531 
	C50.664871,47.731667 43.060181,49.368793 35.378342,45.675659 
	C34.864361,44.641666 34.599930,44.025871 34.335495,43.410072 
	C42.067570,39.592445 49.891876,39.913490 57.890617,43.544487 
	C58.084526,45.096691 58.163128,45.992111 58.241730,46.887531 
z"/>
<path fill="#3E3E3E" opacity="1.000000" stroke="none" 
	d="
M600.159668,45.929207 
	C592.643799,48.635712 585.097168,48.961262 577.226501,45.769760 
	C576.878540,44.737255 576.815063,44.157093 576.751526,43.576935 
	C577.327332,43.009892 577.842834,42.033596 578.488098,41.938499 
	C585.688782,40.877403 592.935059,39.459366 600.021729,43.445492 
	C600.136536,44.581249 600.148132,45.255230 600.159668,45.929207 
z"/>
<path fill="#3E3E3E" opacity="1.000000" stroke="none" 
	d="
M283.811920,46.011189 
	C276.409485,48.730225 268.980652,48.842293 261.258667,45.730469 
	C261.010895,44.748177 261.028717,44.272465 261.046570,43.796745 
	C261.096222,43.638969 261.098145,43.432255 261.202484,43.330505 
	C264.692719,39.926830 279.624084,39.949070 283.415619,43.994316 
	C283.685852,45.093445 283.748871,45.552319 283.811920,46.011189 
z"/>
<path fill="#3E3E3E" opacity="1.000000" stroke="none" 
	d="
M103.273582,46.869488 
	C95.876358,47.838661 88.453873,49.501240 80.866417,45.604534 
	C80.358879,44.628246 80.202003,44.113468 80.045135,43.598686 
	C87.565552,39.637611 95.232018,39.776611 103.032379,43.506592 
	C103.133995,45.111298 103.203789,45.990395 103.273582,46.869488 
z"/>
<path fill="#3E3E3E" opacity="1.000000" stroke="none" 
	d="
M780.148804,45.650253 
	C772.955139,49.409912 765.664001,48.724129 758.007690,45.657238 
	C757.503601,44.647045 757.322693,44.108696 757.141785,43.570351 
	C761.608154,40.232349 775.513733,39.819843 780.040344,43.518940 
	C780.169434,44.645203 780.159119,45.147728 780.148804,45.650253 
z"/>
<path fill="#3E3E3E" opacity="1.000000" stroke="none" 
	d="
M193.481110,45.801636 
	C186.176712,48.970020 178.809067,48.925213 171.114792,45.690796 
	C170.788498,44.655918 170.736816,44.166626 170.685135,43.677338 
	C171.487610,42.877438 172.266373,41.414280 173.096359,41.384621 
	C178.736252,41.183094 184.390320,41.187664 190.030777,41.384487 
	C190.937057,41.416111 191.798203,42.741707 192.931244,44.082489 
	C193.281891,45.064445 193.381500,45.433041 193.481110,45.801636 
z"/>
<path fill="#3E3E3E" opacity="1.000000" stroke="none" 
	d="
M148.152954,45.642227 
	C140.964096,49.416943 133.674179,48.719673 126.020767,45.658745 
	C125.503670,44.641045 125.307419,44.099823 125.111160,43.558605 
	C132.603317,39.670921 140.208588,39.702793 148.045685,43.523369 
	C148.175079,44.644650 148.164017,45.143436 148.152954,45.642227 
z"/>
<path fill="#3E3E3E" opacity="1.000000" stroke="none" 
	d="
M419.278931,45.864845 
	C411.959076,48.992264 404.609497,48.990566 396.883301,45.615067 
	C396.386200,44.639404 396.238098,44.122993 396.089966,43.606583 
	C401.335175,40.312862 414.893311,39.828560 419.051697,43.474686 
	C419.158325,44.729172 419.218628,45.297009 419.278931,45.864845 
z"/>
<path fill="#3E3E3E" opacity="1.000000" stroke="none" 
	d="
M464.154724,45.635052 
	C456.957458,49.426407 449.659668,48.719028 441.995758,45.648621 
	C441.482208,44.637375 441.292542,44.100491 441.102905,43.563606 
	C448.599762,39.672169 456.209167,39.695328 464.052948,43.529160 
	C464.181976,44.645420 464.168365,45.140236 464.154724,45.635052 
z"/>
<path fill="#3E3E3E" opacity="1.000000" stroke="none" 
	d="
M554.564636,45.695457 
	C547.270752,49.041828 539.895813,48.918182 532.165771,45.767128 
	C531.822083,44.753883 531.773193,44.185261 531.724365,43.616631 
	C532.291931,42.856365 532.859497,41.436180 533.427002,41.436207 
	C540.381653,41.436577 547.559387,39.093250 554.412354,43.606781 
	C554.622620,44.608147 554.593628,45.151802 554.564636,45.695457 
z"/>
<path fill="#3E3E3E" opacity="1.000000" stroke="none" 
	d="
M645.187500,45.915501 
	C637.677795,48.627815 630.151672,49.014729 622.323608,45.658699 
	C621.803711,44.634579 621.562256,44.026970 621.320801,43.419357 
	C629.122803,39.613468 636.997986,39.826305 645.050110,43.453499 
	C645.178040,44.583504 645.182739,45.249500 645.187500,45.915501 
z"/>
<path fill="#3E3E3E" opacity="1.000000" stroke="none" 
	d="
M735.284790,45.865044 
	C727.953552,48.990356 720.594604,48.996544 712.854431,45.605152 
	C712.358521,44.637909 712.217529,44.127106 712.076538,43.616302 
	C717.338074,40.310139 730.895020,39.824146 735.057739,43.480621 
	C735.165649,44.733044 735.225220,45.299042 735.284790,45.865044 
z"/>
<path fill="#3E3E3E" opacity="1.000000" stroke="none" 
	d="
M238.578857,45.762142 
	C231.265778,48.941936 223.888809,48.962177 216.174133,45.724609 
	C215.936478,44.797329 215.980453,44.354935 216.024445,43.912537 
	C216.902420,42.956341 217.741776,41.219200 218.664795,41.173534 
	C223.794754,40.919716 228.953705,40.920986 234.082001,41.206768 
	C235.299301,41.274601 236.437225,42.766739 237.963135,44.125732 
	C238.402695,45.019203 238.490784,45.390671 238.578857,45.762142 
z"/>
<path fill="#3E3E3E" opacity="1.000000" stroke="none" 
	d="
M690.227478,45.896389 
	C682.867676,48.592548 675.497925,49.243103 667.717651,45.553238 
	C667.000427,44.538536 666.674988,43.974072 666.349609,43.409607 
	C674.088257,40.124035 681.887695,39.559032 689.900146,43.508232 
	C690.093323,44.718937 690.160400,45.307663 690.227478,45.896389 
z"/>
<path fill="#3E3E3E" opacity="1.000000" stroke="none" 
	d="
M508.987549,45.000759 
	C502.057892,50.074371 494.740417,48.402813 487.122803,45.694946 
	C486.795227,44.653378 486.739685,44.159206 486.684143,43.665039 
	C487.809845,42.804718 488.897369,41.267807 490.067932,41.201683 
	C495.026581,40.921577 500.018463,40.920925 504.978271,41.187916 
	C506.199280,41.253651 507.345306,42.711849 508.799866,44.019001 
	C509.045135,44.672314 509.016327,44.836536 508.987549,45.000759 
z"/>
<path fill="#3E3E3E" opacity="1.000000" stroke="none" 
	d="
M374.215546,45.902760 
	C366.853638,48.591125 359.482880,49.244305 351.699768,45.552887 
	C350.994415,44.541431 350.684448,43.976051 350.374512,43.410675 
	C358.103058,40.083950 365.894928,39.575340 373.896973,43.507172 
	C374.086090,44.720604 374.150818,45.311680 374.215546,45.902760 
z"/>
<path fill="#3E3E3E" opacity="1.000000" stroke="none" 
	d="
M328.863831,46.007713 
	C321.487427,48.213173 314.124634,49.868095 306.603729,44.973160 
	C306.278168,44.302456 306.260651,44.123001 306.243103,43.943542 
	C308.167206,42.963360 310.122711,41.101227 312.009521,41.168423 
	C317.661652,41.369717 323.286926,42.325256 329.047760,43.457794 
	C329.069855,44.622036 328.966827,45.314877 328.863831,46.007713 
z"/>
<path fill="#DBDBDB" opacity="1.000000" stroke="none" 
	d="
M509.261475,45.289040 
	C509.016327,44.836536 509.045135,44.672314 509.087341,44.258362 
	C516.341919,43.890079 523.583008,43.771526 531.274292,43.634804 
	C531.773193,44.185261 531.822083,44.753883 531.794861,45.606422 
	C524.324341,45.785999 516.929871,45.681664 509.261475,45.289040 
z"/>
<path fill="#DBDBDB" opacity="1.000000" stroke="none" 
	d="
M329.152161,46.331772 
	C328.966827,45.314877 329.069855,44.622036 329.426941,43.672173 
	C336.303345,43.479534 342.925629,43.543930 349.961212,43.509499 
	C350.684448,43.976051 350.994415,44.541431 351.306580,45.368546 
	C344.019348,45.972134 336.729889,46.313984 329.152161,46.331772 
z"/>
<path fill="#DBDBDB" opacity="1.000000" stroke="none" 
	d="
M33.924042,43.509209 
	C34.599930,44.025871 34.864361,44.641666 34.984543,45.599335 
	C27.706205,46.179520 20.572115,46.417839 13.149048,46.332363 
	C12.870137,45.813831 12.880202,45.619091 12.781658,44.960770 
	C12.673051,44.497196 12.681733,44.063782 12.681733,44.063782 
	C12.857275,43.972717 13.032816,43.881653 13.438131,43.602776 
	C20.282799,43.479424 26.897692,43.543884 33.924042,43.509209 
z"/>
<path fill="#DBDBDB" opacity="1.000000" stroke="none" 
	d="
M79.641426,43.618515 
	C80.202003,44.113468 80.358879,44.628246 80.481117,45.426464 
	C73.346123,46.091667 66.245758,46.473434 58.693562,46.871368 
	C58.163128,45.992111 58.084526,45.096691 58.134445,43.887634 
	C65.254547,43.595448 72.246132,43.616898 79.641426,43.618515 
z"/>
<path fill="#DBDBDB" opacity="1.000000" stroke="none" 
	d="
M124.704315,43.595318 
	C125.307419,44.099823 125.503670,44.641045 125.643356,45.487907 
	C118.448936,46.143795 111.311081,46.494038 103.723404,46.856888 
	C103.203789,45.990395 103.133995,45.111298 103.178284,43.920265 
	C110.294067,43.616226 117.295761,43.624126 124.704315,43.595318 
z"/>
<path fill="#DBDBDB" opacity="1.000000" stroke="none" 
	d="
M780.604431,45.710049 
	C780.159119,45.147728 780.169434,44.645203 780.254395,43.899548 
	C787.484497,43.662243 794.639893,43.668068 802.243530,43.670540 
	C802.746521,44.162094 802.801392,44.656994 802.853760,45.405609 
	C795.587524,45.696163 788.323792,45.733006 780.604431,45.710049 
z"/>
<path fill="#DBDBDB" opacity="1.000000" stroke="none" 
	d="
M148.607971,45.704643 
	C148.164017,45.143436 148.175079,44.644650 148.259918,43.904396 
	C155.485687,43.667877 162.637711,43.672817 170.237427,43.677544 
	C170.736816,44.166626 170.788498,44.655918 170.841934,45.395702 
	C163.583450,45.686485 156.323227,45.726776 148.607971,45.704643 
z"/>
<path fill="#DBDBDB" opacity="1.000000" stroke="none" 
	d="
M440.696411,43.598213 
	C441.292542,44.100491 441.482208,44.637375 441.617004,45.476429 
	C434.434509,45.796940 427.306854,45.815273 419.729065,45.849228 
	C419.218628,45.297009 419.158325,44.729172 419.198181,43.888840 
	C426.295502,43.621834 433.292725,43.627327 440.696411,43.598213 
z"/>
<path fill="#DBDBDB" opacity="1.000000" stroke="none" 
	d="
M735.734741,45.848900 
	C735.225220,45.299042 735.165649,44.733044 735.204712,43.895176 
	C742.310242,43.626842 749.317139,43.630375 756.732910,43.602127 
	C757.322693,44.108696 757.503601,44.647045 757.629639,45.485687 
	C750.444702,45.801579 743.314697,45.817169 735.734741,45.848900 
z"/>
<path fill="#DBDBDB" opacity="1.000000" stroke="none" 
	d="
M690.680786,45.871742 
	C690.160400,45.307663 690.093323,44.718937 690.143860,43.851242 
	C697.262756,43.595730 704.264038,43.619186 711.670898,43.629471 
	C712.217529,44.127106 712.358521,44.637909 712.468628,45.426590 
	C705.336609,45.752010 698.235352,45.799553 690.680786,45.871742 
z"/>
<path fill="#DBDBDB" opacity="1.000000" stroke="none" 
	d="
M554.993286,45.748627 
	C554.593628,45.151802 554.622620,44.608147 554.811523,43.829414 
	C561.930542,43.609173 568.889709,43.624004 576.300171,43.607883 
	C576.815063,44.157093 576.878540,44.737255 576.856445,45.606606 
	C569.654480,45.864460 562.538147,45.833126 554.993286,45.748627 
z"/>
<path fill="#DBDBDB" opacity="1.000000" stroke="none" 
	d="
M374.669556,45.876701 
	C374.150818,45.311680 374.086090,44.720604 374.140564,43.850056 
	C381.265625,43.593594 388.271454,43.616608 395.683594,43.623100 
	C396.238098,44.122993 396.386200,44.639404 396.498993,45.437805 
	C389.350311,45.763409 382.236938,45.807030 374.669556,45.876701 
z"/>
<path fill="#DBDBDB" opacity="1.000000" stroke="none" 
	d="
M486.236389,43.669273 
	C486.739685,44.159206 486.795227,44.653378 486.849548,45.400925 
	C479.586853,45.690895 472.325378,45.727493 464.609314,45.699570 
	C464.168365,45.140236 464.181976,44.645420 464.267517,43.910713 
	C471.489166,43.671722 478.638885,43.672619 486.236389,43.669273 
z"/>
<path fill="#DBDBDB" opacity="1.000000" stroke="none" 
	d="
M665.937500,43.508934 
	C666.674988,43.974072 667.000427,44.538536 667.325806,45.368462 
	C660.249939,45.708355 653.174194,45.782780 645.642944,45.886353 
	C645.182739,45.249500 645.178040,44.583504 645.429443,43.668358 
	C652.298889,43.482231 658.912170,43.545246 665.937500,43.508934 
z"/>
<path fill="#DBDBDB" opacity="1.000000" stroke="none" 
	d="
M215.563263,43.812996 
	C215.980453,44.354935 215.936478,44.797329 215.802856,45.563828 
	C208.509476,46.022877 201.305756,46.157822 193.791565,46.047203 
	C193.381500,45.433041 193.281891,45.064445 193.117920,44.416515 
	C200.403046,43.995941 207.752563,43.854694 215.563263,43.812996 
z"/>
<path fill="#DBDBDB" opacity="1.000000" stroke="none" 
	d="
M238.860474,46.035488 
	C238.490784,45.390671 238.402695,45.019203 238.260696,44.365707 
	C245.507736,43.948204 252.808701,43.812737 260.578125,43.737007 
	C261.028717,44.272465 261.010895,44.748177 260.888428,45.570869 
	C253.569885,46.048172 246.355972,46.178501 238.860474,46.035488 
z"/>
<path fill="#DBDBDB" opacity="1.000000" stroke="none" 
	d="
M620.909668,43.515709 
	C621.562256,44.026970 621.803711,44.634579 621.928162,45.579212 
	C614.898560,45.897465 607.986023,45.878693 600.616577,45.894562 
	C600.148132,45.255230 600.136536,44.581249 600.400085,43.660763 
	C607.283020,43.480186 613.890808,43.546120 620.909668,43.515709 
z"/>
<path fill="#DBDBDB" opacity="1.000000" stroke="none" 
	d="
M305.772064,43.821693 
	C306.260651,44.123001 306.278168,44.302456 306.343018,44.748203 
	C304.969147,45.627510 303.559387,46.734150 302.124847,46.767239 
	C296.225159,46.903343 290.317963,46.713100 284.112732,46.327034 
	C283.748871,45.552319 283.685852,45.093445 283.615723,44.285294 
	C290.839386,43.857296 298.070221,43.778572 305.772064,43.821693 
z"/>
<path fill="#383838" opacity="1.000000" stroke="none" 
	d="
M12.606631,44.157585 
	C12.681733,44.063782 12.673051,44.497196 12.631283,44.709885 
	C12.438577,44.704449 12.419248,44.480721 12.606631,44.157585 
z"/>
</svg>